<?xml version="1.0" encoding="UTF-8" standalone="no"?>
<svg
   xmlns:dc="http://purl.org/dc/elements/1.1/"
   xmlns:cc="http://creativecommons.org/ns#"
   xmlns:rdf="http://www.w3.org/1999/02/22-rdf-syntax-ns#"
   xmlns:svg="http://www.w3.org/2000/svg"
   xmlns="http://www.w3.org/2000/svg"
   xmlns:sodipodi="http://sodipodi.sourceforge.net/DTD/sodipodi-0.dtd"
   xmlns:inkscape="http://www.inkscape.org/namespaces/inkscape"
   version="1.0"
   width="1092pt"
   height="202.92751pt"
   viewBox="0 0 1092 202.92751"
   preserveAspectRatio="xMidYMid meet"
   id="svg58"
   sodipodi:docname="honeywell-logo.svg"
   inkscape:version="0.92.4 (5da689c313, 2019-01-14)">
  <metadata
     id="metadata64">
    <rdf:RDF>
      <cc:Work
         rdf:about="">
        <dc:format>image/svg+xml</dc:format>
        <dc:type
           rdf:resource="http://purl.org/dc/dcmitype/StillImage" />
        <dc:title></dc:title>
      </cc:Work>
    </rdf:RDF>
  </metadata>
  <defs
     id="defs62" />
  <sodipodi:namedview
     pagecolor="#ffffff"
     bordercolor="#666666"
     borderopacity="1"
     objecttolerance="10"
     gridtolerance="10"
     guidetolerance="10"
     inkscape:pageopacity="0"
     inkscape:pageshadow="2"
     inkscape:window-width="1882"
     inkscape:window-height="1024"
     id="namedview60"
     showgrid="false"
     fit-margin-top="0"
     fit-margin-left="0"
     fit-margin-right="0"
     fit-margin-bottom="0"
     inkscape:zoom="0.18406593"
     inkscape:cx="744.29851"
     inkscape:cy="68.570017"
     inkscape:window-x="0"
     inkscape:window-y="27"
     inkscape:window-maximized="1"
     inkscape:current-layer="svg58" />
  <path
     style="fill:#ee3124;stroke:none;stroke-width:0.1"
     inkscape:connector-curvature="0"
     id="path2"
     d="M 0,79.5 V 159 H 24.5 49 V 122.5 86 h 19 19 l 0.2,36.2 0.3,36.3 H 112 136.5 L 136.8,79.2 137,0 H 112 87 V 33 66 H 68 49 V 33 0 H 24.5 0 Z" />
  <path
     style="fill:#ee3124;stroke:none;stroke-width:0.1"
     inkscape:connector-curvature="0"
     id="path4"
     d="m 990.2,79.2 0.3,79.3 h 22 22 L 1034.8,79.2 1035,0 H 1012.5 990 Z" />
  <path
     style="fill:#ee3124;stroke:none;stroke-width:0.1"
     inkscape:connector-curvature="0"
     id="path6"
     d="M 1048,79.5 V 159 h 22 22 V 79.5 0 h -22 -22 z" />
  <path
     style="fill:#ee3124;stroke:none;stroke-width:0.1"
     inkscape:connector-curvature="0"
     id="path8"
     d="m 198.5,40.5 c -13.8,3 -23.1,8 -32.1,17.2 -11.7,11.8 -17.1,27.2 -16.1,45.8 1.2,20.7 8.7,35.6 24,47.1 7.9,5.9 13,8.1 24.2,10.5 32,6.7 63.1,-4.7 75.2,-27.6 5.9,-11.3 7.8,-19.5 7.7,-33.5 -0.1,-10.7 -0.5,-13.7 -2.7,-20.6 -3,-9.1 -10.1,-20 -16.9,-25.8 -5.8,-5 -19,-11.3 -27.4,-13.1 -8.5,-1.8 -27.8,-1.8 -35.9,0 z M 223,56.6 c 7.8,6.7 9.3,14.4 8.8,47.9 -0.5,29.4 -1.1,32.6 -7.8,39.6 -3.2,3.4 -4.3,3.9 -8,3.9 -3.7,0 -4.8,-0.5 -8.1,-3.9 -6.8,-7.2 -7.4,-10.7 -7.4,-43.6 v -29 l 2.9,-6.3 c 1.6,-3.5 4.2,-7.4 5.8,-8.7 4.1,-3.4 9.6,-3.4 13.8,0.1 z" />
  <path
     style="fill:#ee3124;stroke:none;stroke-width:0.1"
     inkscape:connector-curvature="0"
     id="path10"
     d="m 373.5,39.6 c -11.3,1.7 -20.2,5.9 -27.2,12.7 L 341,57.4 V 50.2 43 h -23 -23 v 58 58 h 23 23 v -42.1 c 0,-26.4 0.4,-42.7 1,-43.9 0.6,-1.1 3.6,-3.7 6.7,-6 4.8,-3.4 6.4,-4 10.7,-4 3.2,0 6.1,0.6 7.5,1.6 4.9,3.5 5.1,5.2 5.1,51.4 v 43 l 22.8,-0.2 22.7,-0.3 0.3,-42 c 0.2,-28.3 0,-44.2 -0.8,-48.7 -1.4,-8.1 -5.9,-16 -11.7,-20.4 -7.1,-5.4 -22.4,-9.2 -31.8,-7.8 z" />
  <path
     style="fill:#ee3124;stroke:none;stroke-width:0.1"
     inkscape:connector-curvature="0"
     id="path12"
     d="m 477.1,41 c -14.4,3.9 -26.1,11.3 -33.8,21.5 -8.7,11.4 -11.7,21.8 -11.7,39.5 0.1,11.5 0.3,13.2 3.1,20.7 3.9,10.1 8.8,17.8 15.8,24.1 11.8,10.8 23.8,15.3 43,16 21.6,0.7 37,-3.5 51,-14 7.4,-5.6 11.7,-12.2 13,-20.1 l 0.6,-3.7 h -10 -10 l -1,3.6 c -1.8,6.6 -5.9,11.2 -12.9,14.6 -5.8,2.9 -7.7,3.3 -16.8,3.6 -11.7,0.5 -15.9,-0.6 -21.1,-5.1 C 480.9,137 480,133.8 480,120 v -12 l 40.8,-0.2 40.7,-0.3 -0.2,-8.3 c -0.8,-29 -16.7,-50.5 -42.8,-57.7 -3.8,-1.1 -11.2,-1.8 -20,-2.1 -11.8,-0.3 -15.2,-0.1 -21.4,1.6 z m 27.4,14.4 c 5.8,3.8 9.4,15.2 9.5,29.8 V 91 h -17 -17 v -6.3 c 0.1,-15.9 3.9,-26.3 11,-30 4,-2.1 9.7,-1.8 13.5,0.7 z" />
  <path
     style="fill:#ee3124;stroke:none;stroke-width:0.1"
     inkscape:connector-curvature="0"
     id="path14"
     d="m 893,41 c -29.6,7.9 -45.9,29.3 -46,60.2 0,11.7 1.4,17.6 6.5,28.4 7.9,16.3 23.2,28 41.7,31.8 8.8,1.8 24.3,2.1 33.6,0.6 19.5,-3.2 37.7,-14.7 42.1,-26.6 1.2,-3 2.1,-6.6 2.1,-7.9 0,-2.5 -0.1,-2.5 -9.8,-2.5 h -9.8 l -1.2,4.5 c -1.6,5.9 -6.9,11.7 -13.5,14.6 -4.1,1.8 -7.5,2.4 -15.9,2.7 -9.7,0.4 -11.1,0.2 -16.1,-2.1 -3.2,-1.4 -6.4,-3.8 -7.8,-5.8 -2.2,-3.1 -2.4,-4.5 -2.7,-17.2 L 895.8,108 h 40.8 40.7 l -0.6,-10.3 c -1.5,-28.9 -17,-49.1 -43.2,-56.3 -3.6,-1 -11.3,-1.8 -19.5,-2 -11.2,-0.3 -14.8,-0.1 -21,1.6 z m 25.3,13.5 c 6.9,3.3 10.7,13.1 10.7,27.7 V 91 H 912.5 896 v -8.5 c 0,-11.3 1.5,-17.7 5.4,-22.8 5.1,-6.7 10.4,-8.3 16.9,-5.2 z" />
  <path
     style="fill:#ee3124;stroke:none;stroke-width:0.1"
     inkscape:connector-curvature="0"
     id="path16"
     d="m 557.4,43.8 c 2.1,3.4 45.6,117 45.6,119 0,3.2 -4.9,13.9 -8.5,18.6 -2.6,3.4 -7.9,6.6 -10.9,6.6 -1.3,0 -1.3,-0.6 0.5,-4.1 3.6,-6.7 1.1,-16.4 -5.3,-21.2 -3,-2.2 -11.5,-3.4 -17.2,-2.3 -7.6,1.4 -13.6,9.7 -13.6,18.8 0.1,10.9 6.2,18.3 18.1,21.9 19.3,5.9 37.4,-2.7 47.5,-22.7 2.3,-4.3 15.3,-35.4 28.9,-69.1 13.7,-33.7 25.1,-61 25.3,-60.8 0.2,0.2 7.9,25 17.2,55.2 l 16.8,54.8 19.4,0.3 19.5,0.2 8.8,-32.2 c 4.8,-17.8 9,-32.7 9.3,-33.2 0.3,-0.5 5.1,13.9 10.7,32 l 10.3,32.9 18.9,0.3 19,0.2 15.6,-56.8 C 841.9,70.9 849,44.8 849,44.1 849,43.4 845.7,43 838.8,43 h -10.3 l -8.4,31.5 c -4.7,17.3 -8.8,31.2 -9.1,30.8 -0.5,-0.7 -8.3,-25.9 -17.5,-57.1 L 791.9,43 h -20.2 -20.2 l -8.4,30.7 c -4.6,17 -8.6,31.2 -8.9,31.7 -0.3,0.5 -3.1,-7.6 -6.4,-18 -3.2,-10.4 -7.7,-24.6 -9.9,-31.7 l -4,-12.7 -31.6,0.2 -31.6,0.3 -10.3,25 c -5.7,13.7 -10.7,25.9 -11.2,26.9 -0.6,1.4 -3.3,-4.5 -11.3,-25.2 L 607.5,43 h -25.3 c -13.9,0 -25.1,0.4 -24.8,0.8 z" />
</svg>
